<svg width="51" height="52" viewBox="0 0 51 52" fill="none" xmlns="http://www.w3.org/2000/svg">
<g filter="url(#filter0_d_12_140)">
<path d="M20.3125 40.625C20.3125 41.7986 19.3611 42.75 18.1875 42.75C17.0139 42.75 16.0625 41.7986 16.0625 40.625C16.0625 39.4514 17.0139 38.5 18.1875 38.5C19.3611 38.5 20.3125 39.4514 20.3125 40.625Z" fill="white" stroke="black" stroke-width="2"/>
<path d="M42.1875 40.625C42.1875 41.7986 41.2361 42.75 40.0625 42.75C38.8889 42.75 37.9375 41.7986 37.9375 40.625C37.9375 39.4514 38.8889 38.5 40.0625 38.5C41.2361 38.5 42.1875 39.4514 42.1875 40.625Z" fill="white" stroke="black" stroke-width="2"/>
<path d="M44.8352 12.4279L44.837 12.43C44.9633 12.5837 45.054 12.7635 45.1024 12.9565C45.1508 13.1494 45.1558 13.3505 45.117 13.5455C45.117 13.5457 45.1169 13.5458 45.1169 13.5459L42.3051 27.6051C42.305 27.6053 42.305 27.6056 42.3049 27.6058C42.243 27.9107 42.0777 28.1848 41.837 28.3819C41.5961 28.5792 41.2944 28.6871 40.9831 28.6875H17.3848H16.1931L16.3999 29.8611L16.9507 32.9861L17.0964 33.8125H17.9355H41.625C41.7742 33.8125 41.9173 33.8718 42.0227 33.9773C42.1282 34.0827 42.1875 34.2258 42.1875 34.375C42.1875 34.5242 42.1282 34.6673 42.0227 34.7727C41.9173 34.8782 41.7742 34.9375 41.625 34.9375H16.625H16.6248C16.4925 34.9375 16.3645 34.891 16.2632 34.806C16.1618 34.721 16.0937 34.603 16.0707 34.4727L15.0859 34.6465L16.0707 34.4727L11.6117 9.20124L11.466 8.375H10.627H5.6875C5.53832 8.375 5.39524 8.31574 5.28975 8.21025C5.18426 8.10476 5.125 7.96168 5.125 7.8125C5.125 7.66332 5.18426 7.52024 5.28975 7.41475C5.39524 7.30926 5.53832 7.25 5.6875 7.25H11.9375H11.9377C12.07 7.24997 12.198 7.29655 12.2993 7.38154C12.4007 7.46654 12.4688 7.58452 12.4918 7.71477L13.0904 11.1111L13.236 11.9375H14.0752L43.7969 11.9375L43.7986 11.9375C43.9969 11.9372 44.1929 11.981 44.3722 12.0658C44.5515 12.1506 44.7096 12.2743 44.8352 12.4279Z" fill="white" stroke="black" stroke-width="2"/>
</g>
<defs>
<filter id="filter0_d_12_140" x="-3" y="0" width="58" height="58" filterUnits="userSpaceOnUse" color-interpolation-filters="sRGB">
<feFlood flood-opacity="0" result="BackgroundImageFix"/>
<feColorMatrix in="SourceAlpha" type="matrix" values="0 0 0 0 0 0 0 0 0 0 0 0 0 0 0 0 0 0 127 0" result="hardAlpha"/>
<feOffset dy="4"/>
<feGaussianBlur stdDeviation="2"/>
<feComposite in2="hardAlpha" operator="out"/>
<feColorMatrix type="matrix" values="0 0 0 0 0 0 0 0 0 0 0 0 0 0 0 0 0 0 0.25 0"/>
<feBlend mode="normal" in2="BackgroundImageFix" result="effect1_dropShadow_12_140"/>
<feBlend mode="normal" in="SourceGraphic" in2="effect1_dropShadow_12_140" result="shape"/>
</filter>
</defs>
</svg>
