<svg width="72" height="72" viewBox="0 0 72 72" fill="none" xmlns="http://www.w3.org/2000/svg">
<circle cx="36" cy="36" r="35" fill="black" stroke="black" stroke-width="2"/>
<path d="M28.1875 54.75C29.9134 54.75 31.3125 53.3509 31.3125 51.625C31.3125 49.8991 29.9134 48.5 28.1875 48.5C26.4616 48.5 25.0625 49.8991 25.0625 51.625C25.0625 53.3509 26.4616 54.75 28.1875 54.75Z" fill="white"/>
<path d="M50.0625 54.75C51.7884 54.75 53.1875 53.3509 53.1875 51.625C53.1875 49.8991 51.7884 48.5 50.0625 48.5C48.3366 48.5 46.9375 49.8991 46.9375 51.625C46.9375 53.3509 48.3366 54.75 50.0625 54.75Z" fill="white"/>
<path d="M55.6094 22.7949C55.3899 22.5264 55.1133 22.3102 54.7998 22.1618C54.4863 22.0135 54.1437 21.9369 53.7969 21.9375H24.0752L23.4766 18.541C23.4127 18.1792 23.2235 17.8515 22.942 17.6154C22.6605 17.3793 22.3049 17.2499 21.9375 17.25H15.6875C15.2731 17.25 14.8757 17.4146 14.5826 17.7076C14.2896 18.0007 14.125 18.3981 14.125 18.8125C14.125 19.2269 14.2896 19.6243 14.5826 19.9174C14.8757 20.2104 15.2731 20.375 15.6875 20.375H20.627L25.0859 45.6465C25.1498 46.0083 25.339 46.336 25.6205 46.5721C25.902 46.8082 26.2576 46.9376 26.625 46.9375H51.625C52.0394 46.9375 52.4368 46.7729 52.7299 46.4799C53.0229 46.1868 53.1875 45.7894 53.1875 45.375C53.1875 44.9606 53.0229 44.5632 52.7299 44.2701C52.4368 43.9771 52.0394 43.8125 51.625 43.8125H27.9355L27.3848 40.6875H50.9844C51.5262 40.6868 52.0512 40.4989 52.4705 40.1557C52.8898 39.8124 53.1775 39.3348 53.2852 38.8037L56.0977 24.7412C56.1654 24.4009 56.1568 24.0497 56.0723 23.7132C55.9879 23.3766 55.8298 23.063 55.6094 22.7949Z" fill="white"/>
</svg>
