<svg width="25" height="25" viewBox="0 0 25 25" fill="none" xmlns="http://www.w3.org/2000/svg">
<path d="M2.43605 25C1.76614 25 1.19245 24.7613 0.714982 24.2838C0.238327 23.8071 0 23.2339 0 22.5639V5.51157C0 4.84166 0.238327 4.26797 0.714982 3.7905C1.19245 3.31385 1.76614 3.07552 2.43605 3.07552H13.3069L10.8709 5.51157H2.43605V22.5639H19.4884V14.0987L21.9245 11.6626V22.5639C21.9245 23.2339 21.6862 23.8071 21.2095 24.2838C20.732 24.7613 20.1583 25 19.4884 25H2.43605ZM16.0475 3.77588L17.7832 5.48112L9.74421 13.5201V15.2558H11.4494L19.5189 7.18636L21.2546 8.8916L12.4848 17.6918H7.30816V12.5152L16.0475 3.77588ZM21.2546 8.8916L16.0475 3.77588L19.0926 0.730816C19.5798 0.243606 20.1636 0 20.8441 0C21.5237 0 22.097 0.243606 22.5639 0.730816L24.2692 2.4665C24.7361 2.93341 24.9695 3.50183 24.9695 4.17174C24.9695 4.84166 24.7361 5.41007 24.2692 5.87698L21.2546 8.8916Z" fill="#E4A951"/>
</svg>
