<svg width="26" height="25" viewBox="0 0 26 25" fill="none" xmlns="http://www.w3.org/2000/svg">
<path d="M11.7573 16C12.0102 16.25 12.3051 16.375 12.6423 16.375C12.9794 16.375 13.2744 16.25 13.5272 16L17.4463 12.125C17.6781 11.8958 17.7885 11.6042 17.7776 11.25C17.7675 10.8958 17.6465 10.6042 17.4147 10.375C17.1619 10.125 16.8669 10 16.5298 10C16.1926 10 15.8977 10.125 15.6448 10.375L12.6423 13.3438L9.60813 10.3437C9.37636 10.1146 9.08137 10.005 8.72317 10.015C8.36497 10.0258 8.06999 10.1458 7.83821 10.375C7.58537 10.625 7.45894 10.9167 7.45894 11.25C7.45894 11.5833 7.58537 11.875 7.83821 12.125L11.7573 16ZM12.6423 25C10.8934 25 9.24993 24.6717 7.71179 24.015C6.17365 23.3592 4.83567 22.4688 3.69787 21.3438C2.56006 20.2188 1.65951 18.8958 0.996212 17.375C0.332071 15.8542 0 14.2292 0 12.5C0 10.7708 0.332071 9.14583 0.996212 7.625C1.65951 6.10417 2.56006 4.78125 3.69787 3.65625C4.83567 2.53125 6.17365 1.64042 7.71179 0.98375C9.24993 0.327917 10.8934 0 12.6423 0C14.3911 0 16.0346 0.327917 17.5728 0.98375C19.1109 1.64042 20.4489 2.53125 21.5867 3.65625C22.7245 4.78125 23.625 6.10417 24.2883 7.625C24.9525 9.14583 25.2846 10.7708 25.2846 12.5C25.2846 14.2292 24.9525 15.8542 24.2883 17.375C23.625 18.8958 22.7245 20.2188 21.5867 21.3438C20.4489 22.4688 19.1109 23.3592 17.5728 24.015C16.0346 24.6717 14.3911 25 12.6423 25ZM12.6423 22.5C15.4446 22.5 17.8311 21.5263 19.8016 19.5788C21.7713 17.6304 22.7561 15.2708 22.7561 12.5C22.7561 9.72917 21.7713 7.36958 19.8016 5.42125C17.8311 3.47375 15.4446 2.5 12.6423 2.5C9.83991 2.5 7.45389 3.47375 5.48422 5.42125C3.51371 7.36958 2.52846 9.72917 2.52846 12.5C2.52846 15.2708 3.51371 17.6304 5.48422 19.5788C7.45389 21.5263 9.83991 22.5 12.6423 22.5Z" fill="#E4A951"/>
</svg>
