<svg width="25" height="27" viewBox="0 0 25 27" fill="none" xmlns="http://www.w3.org/2000/svg">
<path d="M22.125 23C22.125 23.1658 22.0592 23.3247 21.9419 23.4419C21.8247 23.5592 21.6658 23.625 21.5 23.625H15.25V24.875C15.25 25.0888 15.2287 25.2975 15.1875 25.5H21.5C22.163 25.5 22.7989 25.2366 23.2678 24.7678C23.7366 24.2989 24 23.663 24 23V10.285C23.9999 9.62201 23.7364 8.98623 23.2675 8.5175L15.9813 1.2325C15.9619 1.21453 15.9415 1.19783 15.92 1.1825C15.9045 1.17056 15.8895 1.15805 15.875 1.145C15.789 1.06384 15.6975 0.988663 15.6013 0.92C15.5692 0.899352 15.5358 0.880974 15.5013 0.865L15.4412 0.835L15.3787 0.79875C15.3112 0.76 15.2425 0.72 15.1713 0.69C14.9223 0.590579 14.6589 0.532318 14.3912 0.5175C14.3665 0.51589 14.3419 0.51297 14.3175 0.50875C14.2836 0.50351 14.2493 0.500587 14.215 0.5H6.5C5.83696 0.5 5.20107 0.763392 4.73223 1.23223C4.26339 1.70107 4 2.33696 4 3V11.75H5.875V3C5.875 2.83424 5.94085 2.67527 6.05806 2.55806C6.17527 2.44085 6.33424 2.375 6.5 2.375H14V8C14 8.66304 14.2634 9.29893 14.7322 9.76777C15.2011 10.2366 15.837 10.5 16.5 10.5H22.125V23ZM15.875 3.77625L20.7225 8.625H16.5C16.3342 8.625 16.1753 8.55915 16.0581 8.44194C15.9408 8.32473 15.875 8.16576 15.875 8V3.77625ZM5.25 13H9V15.5H5.25V13ZM2.125 13H4V16.125C4 16.2908 4.06585 16.4497 4.18306 16.5669C4.30027 16.6842 4.45924 16.75 4.625 16.75H9.625C9.79076 16.75 9.94973 16.6842 10.0669 16.5669C10.1842 16.4497 10.25 16.2908 10.25 16.125V13H10.7237C11.2209 13.0004 11.6975 13.1983 12.0488 13.55L13.4512 14.95C13.6255 15.1243 13.7636 15.3313 13.8578 15.5591C13.952 15.7869 14.0003 16.031 14 16.2775V24.875C14 25.3723 13.8025 25.8492 13.4508 26.2008C13.0992 26.5525 12.6223 26.75 12.125 26.75H11.5V19.875C11.5 19.7092 11.4342 19.5503 11.3169 19.4331C11.1997 19.3158 11.0408 19.25 10.875 19.25H3.375C3.20924 19.25 3.05027 19.3158 2.93306 19.4331C2.81585 19.5503 2.75 19.7092 2.75 19.875V26.75H2.125C1.62772 26.75 1.15081 26.5525 0.799175 26.2008C0.447544 25.8492 0.25 25.3723 0.25 24.875V14.875C0.25 14.3777 0.447544 13.9008 0.799175 13.5492C1.15081 13.1975 1.62772 13 2.125 13ZM10.25 20.5V26.75H4V20.5H10.25Z" fill="#E4A951" stroke="#E4A951" stroke-width="0.2"/>
</svg>
