<svg width="26" height="25" viewBox="0 0 26 25" fill="none" xmlns="http://www.w3.org/2000/svg">
<path d="M13.5272 9.5C13.2744 9.25 12.9794 9.125 12.6423 9.125C12.3051 9.125 12.0102 9.25 11.7573 9.5L7.8382 13.375C7.60643 13.6042 7.49602 13.8958 7.50698 14.25C7.51709 14.6042 7.63804 14.8958 7.86981 15.125C8.12266 15.375 8.41764 15.5 8.75477 15.5C9.0919 15.5 9.38688 15.375 9.63973 15.125L12.6423 12.1562L15.6764 15.1563C15.9082 15.3854 16.2032 15.495 16.5614 15.485C16.9196 15.4742 17.2146 15.3542 17.4463 15.125C17.6992 14.875 17.8256 14.5833 17.8256 14.25C17.8256 13.9167 17.6992 13.625 17.4463 13.375L13.5272 9.5ZM12.6423 0.5C14.3911 0.5 16.0346 0.828333 17.5728 1.485C19.1109 2.14083 20.4489 3.03125 21.5867 4.15625C22.7245 5.28125 23.625 6.60417 24.2883 8.125C24.9525 9.64583 25.2845 11.2708 25.2845 13C25.2845 14.7292 24.9525 16.3542 24.2883 17.875C23.625 19.3958 22.7245 20.7187 21.5867 21.8437C20.4489 22.9687 19.1109 23.8596 17.5728 24.5163C16.0346 25.1721 14.3911 25.5 12.6423 25.5C10.8934 25.5 9.24993 25.1721 7.71178 24.5163C6.17364 23.8596 4.83566 22.9687 3.69786 21.8437C2.56005 20.7187 1.6595 19.3958 0.996205 17.875C0.332064 16.3542 -6.67572e-06 14.7292 -6.67572e-06 13C-6.67572e-06 11.2708 0.332064 9.64583 0.996205 8.125C1.6595 6.60417 2.56005 5.28125 3.69786 4.15625C4.83566 3.03125 6.17364 2.14083 7.71178 1.485C9.24993 0.828333 10.8934 0.5 12.6423 0.5ZM12.6423 3C9.8399 3 7.45346 3.97375 5.48295 5.92125C3.51328 7.86958 2.52845 10.2292 2.52845 13C2.52845 15.7708 3.51328 18.1304 5.48295 20.0788C7.45346 22.0263 9.8399 23 12.6423 23C15.4446 23 17.8307 22.0263 19.8003 20.0788C21.7708 18.1304 22.7561 15.7708 22.7561 13C22.7561 10.2292 21.7708 7.86958 19.8003 5.92125C17.8307 3.97375 15.4446 3 12.6423 3Z" fill="#E4A951"/>
</svg>
